{"title":"Ant.Bully.2006.1080p.Bluray.REMUX.VC-1.AC3-BRD","uid":10811814,"size":9525876768,"categoryP":"video","categoryS":"hd___movies","magnet":"?xt=urn:btih:99fbe9c050d293f25d25b52bbc854ecde9bc70bf&amp;dn=Ant.Bully.2006.1080p.Bluray.REMUX.VC-1.AC3-BRD&amp;tr=udp%3A%2F%2Ftracker.openbittorrent.com%3A80&amp;tr=udp%3A%2F%2Fopen.demonii.com%3A1337&amp;tr=udp%3A%2F%2Ftracker.coppersurfer.tk%3A6969&amp;tr=udp%3A%2F%2Fexodus.desync.com%3A6969","seeders":1,"leechers":0,"uploader":"ataion","files":1,"time":1408436113,"description":" &lt;a href=&quot;http://www.imdb.com/title/tt0429589/&quot; rel=&quot;nofollow&quot; target=&quot;_NEW&quot;&gt;http://www.imdb.com/title/tt0429589/&lt;/a&gt;\n\nThe Ant Bully is a 2006 American computer-animated film written and directed by John A. Davis based on the 1999 children's book of the same name by John Nickle. The film, featuring the voices of Julia Roberts, Nicolas Cage, Meryl Streep and Paul Giamatti, was produced by Tom Hanks and Gary Goetzman's Playtone, John A. Davis and Keith Alcorn's DNA Productions and released in movie theatres on July 28, 2006 by Warner Bros. and Legendary Pictures.\n\nVideo\nID                                       : 1\nFormat                                   : VC-1\nFormat profile                           : Advanced@L3\nCodec ID                                 : V_MS/VFW/FOURCC / WVC1\nCodec ID/Hint                            : Microsoft\nDuration                                 : 1h 29mn\nBit rate                                 : 12.1 Mbps\nWidth                                    : 1 920 pixels\nHeight                                   : 1 080 pixels\nDisplay aspect ratio                     : 16:9\nFrame rate mode                          : Constant\nFrame rate                               : 23.976 fps\nColor space                              : YUV\nChroma subsampling                       : 4:2:0\nBit depth                                : 8 bits\nScan type                                : Progressive\nCompression mode                         : Lossy\nBits/(Pixel*Frame)                       : 0.243\nStream size                              : 7.50 GiB (85%)\nLanguage                                 : English\nDefault                                  : No\nForced                                   : No\n\nAudio #1\nID                                       : 2\nFormat                                   : AC-3\nFormat/Info                              : Audio Coding 3\nMode extension                           : CM (complete main)\nFormat settings, Endianness              : Big\nCodec ID                                 : A_AC3\nDuration                                 : 1h 29mn\nBit rate mode                            : Constant\nBit rate                                 : 640 Kbps\nChannel(s)                               : 6 channels\nChannel positions                        : Front: L C R, Side: L R, LFE\nSampling rate                            : 48.0 KHz\nBit depth                                : 16 bits\nCompression mode                         : Lossy\nStream size                              : 408 MiB (4%)\nTitle                                    : Surround 5.1\nLanguage                                 : English\nDefault                                  : Yes\nForced                                   : No\n\nAudio #2\nID                                       : 3\nFormat                                   : AC-3\nFormat/Info                              : Audio Coding 3\nMode extension                           : CM (complete main)\nFormat settings, Endianness              : Big\nCodec ID                                 : A_AC3\nDuration                                 : 1h 29mn\nBit rate mode                            : Constant\nBit rate                                 : 640 Kbps\nChannel(s)                               : 6 channels\nChannel positions                        : Front: L C R, Side: L R, LFE\nSampling rate                            : 48.0 KHz\nBit depth                                : 16 bits\nCompression mode                         : Lossy\nStream size                              : 408 MiB (4%)\nTitle                                    : Surround 5.1\nLanguage                                 : French\nDefault                                  : No\nForced                                   : No\n\nAudio #3\nID                                       : 4\nFormat                                   : AC-3\nFormat/Info                              : Audio Coding 3\nMode extension                           : CM (complete main)\nFormat settings, Endianness              : Big\nCodec ID                                 : A_AC3\nDuration                                 : 1h 29mn\nBit rate mode                            : Constant\nBit rate                                 : 640 Kbps\nChannel(s)                               : 6 channels\nChannel positions                        : Front: L C R, Side: L R, LFE\nSampling rate                            : 48.0 KHz\nBit depth                                : 16 bits\nCompression mode                         : Lossy\nStream size                              : 408 MiB (4%)\nTitle                                    : Surround 5.1\nLanguage                                 : Spanish\nDefault                                  : No\nForced                                   : No","torrent":{"xt":"urn:btih:99fbe9c050d293f25d25b52bbc854ecde9bc70bf","amp;dn":"Ant.Bully.2006.1080p.Bluray.REMUX.VC-1.AC3-BRD","amp;tr":["udp%3A%2F%2Ftracker.openbittorrent.com%3A80","udp%3A%2F%2Fopen.demonii.com%3A1337","udp%3A%2F%2Ftracker.coppersurfer.tk%3A6969","udp%3A%2F%2Fexodus.desync.com%3A6969"],"infoHash":"99fbe9c050d293f25d25b52bbc854ecde9bc70bf","infoHashBuffer":{"type":"Buffer","data":[153,251,233,192,80,210,147,242,93,37,181,43,188,133,78,205,233,188,112,191]},"announce":[],"urlList":[]}}